<svg xmlns="http://www.w3.org/2000/svg" width="1450" height="1450" fill="none" viewBox="0 0 1450 1450">
  <rect width="1450" height="1450" fill="#FFF7EC" rx="278"/>
  <g clip-path="url(#a)">
    <path fill="#6FC067" d="M603.695 856.922c-7.328-5.661-31.645-19.147-40.528-23.143l288.525-464.755c25.149-18.259 54.24 5.328 34.032 32.079L603.695 856.922Z"/>
    <path fill="#fff" d="M123.246 1163.56c-4.22-15.6 22.207-59.67 13.546-70.43-5.996-7.44-25.094 8.82-28.925 4.88-6.162-6.27 16.434-66.38 20.875-76.53 30.59-69.489 60.07-107.728 75.06-187.314 2.942-15.707 11.658-61.716 11.436-75.036-.277-22.255-23.373-1.277-24.205-24.475-1.555-42.791 23.484-74.925 34.587-110.056 9.827-31.191-21.596-9.99-24.095-10.712-10.159-2.886 9.55-43.289 13.38-50.171 16.045-29.027 30.923-37.352 51.243-58.719 11.659-12.265-1.832-21.867-3.72-36.907-5.329-42.624 13.547-109.168 49.3-135.42 3.331-2.442 22.373-16.594 23.817-7.159 7.106 46.953-29.647 101.009-34.254 143.3-1.444 13.043 1.443 27.695 17.599 19.481 8.993-4.551 8.161-16.206 12.324-19.037 30.813-21.034 148.454 6.549 163.5 42.457 6.717 16.04-1.555 22.367-.5 33.3 1.277 13.875 28.814 25.752 39.084 34.244 15.379 12.709 64.623 62.048 66.233 80.53 2.109 24.475-27.87-12.765-32.311-14.097-17.822-5.439-22.152 13.153-11.715 25.196 15.49 17.871 51.465 9.269 26.094 39.572-14.102 16.872-30.202 20.868-49.133 8.491-5.663-3.718-22.763-26.529-30.035-12.432-7.273 14.097 16.488 31.802 16.377 33.744-.666 13.042-108.148-9.99-112.922-2.997-11.437 16.539 27.647 27.028 33.754 32.079 9.216 7.603 19.598 90.02 26.538 106.559 2.109 12.321 9.438 51.393 6.051 60.828-4.219 11.821-82.555 33.966-97.378 35.742-9.993 1.221-48.522-5.217-33.532 14.763 15.878 21.146 89.605 2.941 111.868-5.883 14.101-5.606 46.357-27.417 57.016-26.085 18.931 2.386 14.157 36.13 10.049 48.784-16.933 51.61-84.831 81.09-134.075 89.74-9.549 1.67-43.692-2.61-25.594 18.87 16.767 19.87 74.283.5 95.102-7.27 8.716-3.22 49.688-25.31 52.519-24.64 4.109 1 15.712 73.87 10.66 82.92-128.912 2.22-268.927-8.22-395.507 0l-.111-.11Zm337.269-574.37c-1.943-3.663-36.586-14.818-42.527-13.597-21.263 4.384-12.491 52.669 22.263 45.565 9.827-1.998 25.094-22.922 20.264-31.968Z"/>
    <path fill="#4D361C" d="M123.246 1163.56c-8.883.55-19.265 3.6-28.925 1.94v-27.97c0-.78 2.499-2.72 1.777-5.44-.278-1-10.77-9.05-13.713-15.43-23.65-51.28 37.086-138.416 57.96-185.813 18.099-41.014 34.199-93.905 36.642-138.86 1.443-26.418-5.663-15.263-11.659-30.192s-3.497-41.125-1.055-57.72c1.555-10.656 16.656-56.831 16.211-60.328-.277-2.164-8.216-7.603-10.437-13.93-13.102-38.184 26.038-99.678 50.632-127.816 3.331-3.83 13.38-10.101 14.213-12.932 1.61-5.438-3.331-17.593-3.609-24.586-2.72-62.881 12.325-120.434 63.734-160.172 81.833-63.325 79.501 29.248 65.455 86.691-1.499 6.049-14.989 40.126-13.379 41.569.444.388 10.659.388 12.491 0 10.326-2.442 64.567-78.588 77.225-92.574 14.212-15.651 40.528-48.784 61.846-27.084 21.319 21.701 6.774 85.692-6.495 111.333-3.054 5.938-21.097 28.915-19.542 31.413.777 1.221 21.263 9.046 25.649 11.988 16.988 11.322 30.979 29.858 32.311 50.837.389 6.549-4.275 14.208-1.11 20.202 1.887 3.497 43.47 34.188 51.131 41.458 43.193 40.959 70.175 83.805 33.144 141.192-18.209 28.249-76.614 56.498-109.369 56.498h-27.981l28.98 136.918c1.61.999 20.597-26.584 20.93-28.471.888-5.273-8.383-9.657-7.106-20.202.5-4.163 12.991-26.584 16.211-30.247 11.215-12.654 15.212-7.77 27.814-2.109 8.883 3.996 33.2 17.482 40.528 23.143 7.328 5.661 12.492 9.99 11.492 20.035-.666 6.882-19.098 37.518-25.926 37.796-3.331.111-9.327-5.661-12.436-3.663-.889.555-11.104 17.149-11.104 18.204 0 1.498 11.825 15.872 13.935 20.201 13.991 28.472 5.385 56.221-11.825 80.921-4.608 6.6-30.535 31.63-30.923 33.85-.778 5 9.215 37.74 10.548 46.62 1.166 7.61 7.106 51.06.888 52.89-4.941 1.39-22.484-.16-29.535-.05 5.052-9.05-6.551-81.92-10.66-82.92-2.831-.72-43.803 21.37-52.519 24.64-20.819 7.77-78.335 27.09-95.102 7.27-18.098-21.47 16.045-17.2 25.594-18.87 49.244-8.65 117.142-38.07 134.075-89.74 4.164-12.653 8.883-46.452-10.049-48.783-10.659-1.332-42.97 20.535-57.016 26.085-22.263 8.824-95.99 27.028-111.868 5.883-14.99-19.98 23.539-13.542 33.532-14.763 14.824-1.776 93.159-23.865 97.378-35.742 3.387-9.435-3.942-48.507-6.051-60.828-6.94-16.539-17.322-98.956-26.538-106.559-6.107-5.051-45.191-15.54-33.754-32.079 4.83-6.937 112.256 16.095 112.922 2.997.111-1.998-23.817-19.369-16.377-33.744 7.439-14.374 24.372 8.714 30.035 12.432 18.876 12.377 34.976 8.381 49.133-8.491 25.371-30.303-10.604-21.701-26.094-39.572-10.437-12.043-6.106-30.635 11.715-25.196 4.441 1.387 34.476 38.627 32.311 14.097-1.61-18.482-50.854-67.821-66.233-80.531-10.27-8.491-37.807-20.368-39.084-34.243-.999-10.933 7.273-17.316.5-33.3-15.101-35.908-132.687-63.491-163.499-42.457-4.164 2.831-3.276 14.486-12.325 19.036-16.1 8.159-18.987-6.493-17.599-19.48 4.608-42.291 41.305-96.347 34.254-143.3-1.443-9.435-20.43 4.662-23.817 7.159-35.753 26.252-54.629 92.796-49.3 135.42 1.888 15.095 15.379 24.641 3.72 36.907-20.319 21.367-35.143 29.692-51.243 58.719-3.775 6.882-23.539 47.285-13.379 50.171 2.498.722 33.921-20.424 24.094 10.712-11.103 35.131-36.142 67.265-34.587 110.056.833 23.198 23.928 2.275 24.205 24.475.167 13.32-8.494 59.329-11.436 75.036-14.99 79.586-44.47 117.77-75.06 187.313-4.497 10.15-27.037 70.26-20.874 76.53 3.886 3.94 22.984-12.32 28.924-4.88 8.716 10.82-17.71 54.89-13.546 70.43Zm355.035-817.791-6.663 1.998-68.564 88.633c25.15 3.164 30.313 12.543 48.19-8.713 7.383-8.769 27.037-43.845 27.037-53.946v-27.972Z"/>
    <path fill="#4D361C" d="M460.515 589.19c4.83 9.047-10.493 29.97-20.264 31.968-34.754 7.104-43.526-41.181-22.262-45.565 5.94-1.221 40.583 9.934 42.526 13.597Z"/>
    <path fill="#fff" d="M478.28 345.77v27.971c0 10.101-19.708 45.177-27.037 53.946-17.876 21.256-23.039 11.877-48.189 8.714l68.564-88.633 6.662-1.998Z"/>
  </g>
  <g clip-path="url(#b)">
    <path fill="#ED1368" d="M888.115 831.657c-7.882 3.607-35.416 19.811-42.466 25.082-36.192-65.37-144.66-230.017-183.073-294.333-2.387-10.655 26.7-18.978 30.475-29.467l195.008 298.773.056-.055Z"/>
    <path fill="#ED1368" d="M569.318 365.352c9.215-1.61 19.262 1.054 25.59 8.212l105.304 169.864c.999 4.162-22.648 39.344-25.257 39.344-15.821-25.027-33.806-48.667-50.015-73.417-12.657-19.256-66.613-98.721-70.998-114.093-3.72-13.096.61-27.358 15.376-29.91Z"/>
    <path fill="#fff" d="M926.695 1163.34c.555-10.16 6.606-81.85 9.659-84.85 2.221-2.17 48.294 23.81 55.455 26.52 34.191 13.16 88.981 23.37 124.341 13.38 7.89-2.22 25.76-10.77 26.59-19.81 1.33-14.49-17.98-5-27.86-4.55-54.46 2.22-97.59-5.44-142.444-37.07-27.533-19.42-56.787-52.28-51.014-88.846 2.553-16.038 6.106-16.87 20.15-11.487 39.524 15.205 54.567 38.512 105.808 35.127 18.7-1.221 65.89-21.421 58.84-45.06-2.11-7.159-33.37 7.769-40.58 9.322-25.37 5.328-48.24 3.163-71.943-7.158-2.998-1.332-20.262-11.154-20.706-12.542-2.831-9.489 7.661-66.258 10.214-80.02 5.329-28.69 12.879-56.825 20.705-84.904 8.22-5.05 51.96-19.422 37.53-34.239-7.22-7.38-50.797 4.883-63.564 5.827-6.439.444-49.127.499-51.181-1.998-1.387-1.665 30.42-25.027 18.818-36.126-12.601-12.097-29.032 13.707-39.301 18.59-15.543 7.381-27.533 1.166-38.358-11.32-25.812-29.855 7.883-21.365 24.092-39.566 11.657-13.097 8.548-30.965-10.214-27.525-5.218.944-29.254 34.184-32.307 17.869-2.942-15.76 38.746-63.484 51.18-74.194 8.938-7.658 45.408-28.967 48.961-35.904 8.548-16.869-14.655-33.406 15.099-56.325 27.921-21.475 117.955-48.057 148.655-27.802 7.5 4.939 5.55 17.647 12.1 20.699 11.38 5.327 19.54-3.662 18.93-14.872-1.94-36.126-33.53-86.513-36.25-133.682-.83-14.65-4.66-24.694 11.33-17.092 43.41 20.588 66.44 89.788 63.84 134.737-.73 12.264-9.55 34.183-7.17 43.894 2.22 8.935 14.16 11.543 20.82 17.814 15.43 14.483 39.91 53.883 45.3 74.304 8.43 31.964-4.11 11.82-14.99 13.873-18.54 3.441 6.22 36.293 10.44 46.614 5.1 12.486 28.08 84.571 16.7 91.619-7.1 4.439-22.42-5.327-20.76 16.426 2.78 35.626 20.1 105.158 31.76 139.952 15.54 46.559 41.13 88.067 60.11 132.795 4.33 10.27 22.32 55.83 17.71 63.82-2.77 4.82-23.98-6.55-26.76 7.1-2.55 12.43 12.16 41.67 7.72 56.77-127.62-4.11-269.78-4.05-397.399 0l-.056-.11Zm96.085-587.726c-5.49.277-26.641 6.603-30.971 9.656-16.597 11.598 8.211 36.458 21.201 37.679 28.43 2.719 38.36-48.723 9.77-47.335Z"/>
    <path fill="#4D361C" d="M888.115 831.657c9.937-4.495 16.987-6.16 24.814 3.163 2.664 3.219 14.377 25.693 14.876 29.467 1.333 10.71-8.104 14.816-6.494 21.753 1.332 5.882 16.542 22.53 20.872 28.468 4.829-45.338 13.544-90.454 26.922-134.071-.721-4.606-18.818-2.442-23.758-3.163-48.239-6.604-98.254-24.139-119.237-71.696-27.256-61.708 11.768-100.553 55.4-138.177 5.606-4.828 36.359-25.25 37.358-27.358.555-1.055-3.886-18.202-3.552-23.529 1.276-22.142 20.76-41.287 38.635-52.219 5.329-3.274 24.147-9.656 24.924-10.765 1.554-2.22-25.535-36.348-29.254-44.95-10.658-24.472-26.312-117.811 22.093-101.163 31.476 10.821 82.656 97.667 108.466 122.972 2.11 2.83 15.77 2.497 16.38 1.942 2.05-1.942-14.49-46.281-16.1-54.271-9.55-47.058-12.55-126.302 57.18-82.241 44.46 28.08 72.6 81.852 76.54 133.682 1.06 14.04-5.32 52.607-3.44 59.322 1.11 3.829 15.1 15.038 18.88 19.811 21.37 26.914 52.51 75.969 48.12 111.596-1.16 9.655-9.82 18.368-9.6 25.193.33 9.934 12.16 39.178 14.66 53.107 3.1 17.203 6.99 43.173 1.99 59.877-4.27 14.15-13.49 7.88-12.32 29.577 2.61 48.279 22.32 108.821 41.86 152.938 20.31 45.948 74.66 125.418 54.51 175.298-3.17 7.83-14.6 13.16-15.44 14.6-.99 1.77 1.78 3.77 1.78 4.49v29.91c-9.99 1.83-21.81-1.61-30.86-1.94 4.44-15.09-10.22-44.39-7.72-56.77 2.78-13.59 23.98-2.22 26.76-7.1 4.6-7.99-13.38-53.55-17.71-63.82-18.98-44.725-44.58-86.233-60.12-132.791-11.6-34.794-28.97-104.382-31.75-139.953-1.67-21.753 13.6-11.986 20.76-16.426 11.32-7.047-11.66-79.132-16.71-91.618-4.22-10.266-28.97-43.174-10.43-46.614 10.88-1.998 23.37 18.09 14.98-13.873-5.38-20.422-29.92-59.822-45.29-74.305-6.66-6.215-18.6-8.879-20.82-17.813-2.39-9.712 6.44-31.631 7.16-43.895 2.61-44.949-20.43-114.149-63.84-134.736-15.98-7.603-12.15 2.441-11.32 17.091 2.72 47.169 34.31 97.557 36.25 133.682.61 11.21-7.55 20.2-18.93 14.872-6.5-3.052-4.61-15.815-12.1-20.698-30.7-20.2-120.737 6.326-148.659 27.801-29.698 22.863-6.55 39.456-15.099 56.326-3.553 6.992-40.023 28.245-48.96 35.903-12.49 10.71-54.123 58.434-51.181 74.194 3.053 16.315 27.034-16.87 32.307-17.869 18.707-3.44 21.871 14.429 10.214 27.525-16.209 18.201-49.959 9.767-24.091 39.566 10.824 12.486 22.814 18.701 38.357 11.321 10.27-4.884 26.701-30.632 39.302-18.59 11.602 11.154-20.206 34.461-18.818 36.125 2.054 2.498 44.741 2.498 51.18 1.998 12.768-.888 56.348-13.207 63.558-5.827 14.38 14.761-29.36 29.19-37.52 34.239-7.775 28.08-15.324 56.215-20.709 84.904-2.553 13.762-13.1 70.476-10.213 80.021.444 1.387 17.707 11.209 20.705 12.541 23.707 10.322 46.577 12.486 71.937 7.159 7.22-1.499 38.47-16.482 40.58-9.323 7 23.584-40.19 43.784-58.84 45.06-51.179 3.385-66.278-19.922-105.801-35.127-14.1-5.438-17.653-4.55-20.151 11.487-5.773 36.573 23.481 69.423 51.014 88.843 44.848 31.63 87.988 39.35 142.438 37.07 9.88-.39 29.2-9.93 27.87 4.55-.83 9.05-18.71 17.59-26.59 19.81-35.36 9.99-90.15-.22-124.344-13.37-7.106-2.72-53.235-28.69-55.455-26.53-3.054 3-9.104 74.7-9.659 84.85-4.608.17-28.588 4.27-30.864 1.94-1.499-1.55 4.33-37.29 1.998-43.34.888-10.37 10.603-57.32 9.715-61.37-.445-1.94-22.593-20.65-27.922-28.53-15.987-23.75-22.649-50.882-11.158-78.24 1.998-4.717 15.654-22.752 15.488-24.361-.111-1.11-12.213-17.425-13.212-17.869-4.663-2.22-8.438 6.937-17.208 0-1.444-1.11-19.207-28.412-19.873-30.299-4.163-12.264 3.164-17.924 11.99-24.528 6.995-5.272 34.583-21.476 42.466-25.083l-.167.167Zm152.375-395.386-71.329-88.677c-5.995 20.366 24.813 92.895 45.409 94.393 1.61.111 25.03-4.717 25.92-5.716Z"/>
    <path fill="#4D361C" d="M1022.78 575.614c28.59-1.388 18.66 50.054-9.77 47.335-13.041-1.221-37.854-26.082-21.201-37.68 4.33-3.052 25.481-9.378 30.971-9.655Z"/>
    <path fill="#fff" d="M1040.49 436.271c-.89.999-24.31 5.827-25.92 5.716-20.596-1.554-51.404-74.027-45.409-94.393l71.329 88.677Z"/>
  </g>
  <defs>
    <clipPath id="a">
      <path fill="#fff" d="M77 283h815.497v883H77z"/>
    </clipPath>
    <clipPath id="b">
      <path fill="#fff" d="M552.665 283H1373v883H552.665z"/>
    </clipPath>
  </defs>
</svg>
