<svg xmlns="http://www.w3.org/2000/svg" width="2100" height="2100" fill="none" viewBox="0 0 2100 2100">
  <rect width="2100" height="2100" fill="#FFF7EC" rx="445.647"/>
  <path fill="#6FC067" d="M344.727 1790.31h45.703c-6.25 26.43-18.164 46.75-35.742 60.94-18.099 14.06-39.519 21.09-64.258 21.09-22.396-.52-41.081-5.99-56.055-16.4-15.234-10.03-26.302-21.62-33.203-34.77-2.083-4.29-3.971-8.4-5.664-12.3-1.563-4.04-2.865-9.12-3.906-15.24-1.954-11.46-2.93-33.46-2.93-66.01 0-33.08.976-55.21 2.93-66.41 2.083-11.2 5.273-20.25 9.57-27.15 6.901-13.15 17.969-24.87 33.203-35.15 14.974-10.42 33.659-15.76 56.055-16.02 27.474.26 49.869 8.4 67.187 24.41 17.318 16.15 28.255 36.14 32.813 59.97h-45.703c-3.516-11.46-9.896-21.23-19.141-29.3-9.635-7.68-21.354-11.65-35.156-11.92-10.157.27-18.881 2.28-26.172 6.06-7.422 3.91-13.412 8.79-17.969 14.65-5.599 6.12-9.31 14-11.133 23.63-2.083 10.16-3.125 29.23-3.125 57.23 0 27.99 1.042 46.94 3.125 56.83 1.823 9.9 5.534 17.91 11.133 24.03 4.557 5.86 10.547 10.61 17.969 14.25 7.291 4.3 16.015 6.45 26.172 6.45 24.218 0 42.317-12.96 54.297-38.87Zm62.695-21.87c0-21.36 1.758-37.76 5.273-49.22 3.646-11.2 9.245-20.64 16.797-28.32 5.599-6.77 13.412-12.83 23.438-18.17 9.896-5.07 22.591-7.74 38.086-8 16.015.26 28.971 2.93 38.867 8 9.765 5.34 17.318 11.4 22.656 18.17 8.073 7.68 13.802 17.12 17.188 28.32 3.255 11.46 4.882 27.86 4.882 49.22 0 21.35-1.627 37.63-4.882 48.83-3.386 11.19-9.115 20.89-17.188 29.1-2.604 2.99-5.794 5.92-9.57 8.79-3.386 3.25-7.748 6.05-13.086 8.39-9.896 5.6-22.852 8.53-38.867 8.79-15.495-.26-28.19-3.19-38.086-8.79-10.026-5.07-17.839-10.8-23.438-17.18-7.552-8.21-13.151-17.91-16.797-29.1-3.515-11.2-5.273-27.48-5.273-48.83Zm126.367.39c0-14.45-.651-25-1.953-31.64-1.302-6.38-3.971-11.98-8.008-16.8-2.995-4.56-7.422-8.14-13.281-10.74-5.599-2.74-12.109-4.1-19.531-4.1-6.901 0-13.282 1.36-19.141 4.1-5.599 2.6-10.156 6.18-13.672 10.74-3.515 4.82-6.055 10.42-7.617 16.8-1.563 6.64-2.344 17.05-2.344 31.25 0 14.06.781 24.35 2.344 30.86 1.562 6.64 4.102 12.5 7.617 17.58 3.516 3.9 8.073 7.35 13.672 10.35 5.859 2.86 12.24 4.29 19.141 4.29 7.422 0 13.932-1.43 19.531-4.29 5.859-3 10.286-6.45 13.281-10.35 4.037-5.08 6.706-10.94 8.008-17.58 1.302-6.51 1.953-16.67 1.953-30.47Zm204.883 79.88c-13.412 15.24-30.925 23.11-52.539 23.63-12.24-.26-22.722-2.8-31.445-7.61-9.115-4.69-16.732-10.94-22.852-18.75-5.599-6.38-9.31-15.04-11.133-25.98-2.213-10.42-3.32-27.6-3.32-51.56 0-24.35 1.107-41.67 3.32-51.96 1.823-10.41 5.534-18.81 11.133-25.19 11.458-17.06 29.557-25.91 54.297-26.56 10.416 0 20.052 2.15 28.906 6.44 8.203 4.56 16.081 10.42 23.633 17.58v-103.52h40.82V1870h-40.82v-21.29Zm-40.039-143.16c-9.636 0-16.992 1.62-22.071 4.88-5.598 3.52-9.7 8.33-12.304 14.45-2.474 6.12-4.102 12.76-4.883 19.92a233.736 233.736 0 0 0-1.172 23.64c0 7.68.391 15.17 1.172 22.46.781 7.68 2.409 14.58 4.883 20.7 2.604 5.86 6.706 10.68 12.304 14.45 5.079 3.65 12.435 5.47 22.071 5.47 9.635 0 17.252-1.95 22.851-5.86 5.599-3.77 9.44-8.72 11.524-14.84 2.604-6.12 4.362-12.96 5.273-20.51.261-7.42.391-14.71.391-21.87 0-7.82-.13-15.3-.391-22.46-.911-7.16-2.669-13.81-5.273-19.93-2.084-6.12-5.925-11.06-11.524-14.84-5.599-3.78-13.216-5.66-22.851-5.66Zm283.789 78.51H856.055c0 16.28 4.687 28.65 14.062 37.11 8.724 8.6 20.182 12.89 34.375 12.89 16.537 0 31.315-6.57 44.336-19.72l29.492 25.19c-20.703 22.14-45.052 33.07-73.047 32.81a105.83 105.83 0 0 1-31.25-4.68c-5.078-1.7-10.026-3.98-14.843-6.84a71.541 71.541 0 0 1-14.258-9.18c-8.594-7.55-15.56-18.1-20.899-31.64-5.859-13.02-8.789-29.95-8.789-50.78 0-20.05 2.539-36.72 7.618-50 5.078-13.54 11.588-24.22 19.531-32.03 8.073-7.95 17.122-13.67 27.148-17.19 9.896-3.52 19.662-5.27 29.297-5.27 23.177.26 42.774 7.87 58.789 22.85 16.276 15.23 24.544 36.2 24.805 62.89v33.59Zm-126.367-33.59h85.547c-.521-15.76-4.753-27.67-12.696-35.74-7.812-7.69-17.838-11.53-30.078-11.53-12.239 0-22.266 3.84-30.078 11.53-7.682 8.07-11.914 19.98-12.695 35.74Zm319.145 39.84h45.7c-6.25 26.43-18.17 46.75-35.74 60.94-18.1 14.06-39.52 21.09-64.26 21.09-22.4-.52-41.08-5.99-56.06-16.4-15.23-10.03-26.3-21.62-33.2-34.77-2.08-4.29-3.97-8.4-5.66-12.3-1.57-4.04-2.87-9.12-3.91-15.24-1.95-11.46-2.93-33.46-2.93-66.01 0-33.08.98-55.21 2.93-66.41 2.08-11.2 5.27-20.25 9.57-27.15 6.9-13.15 17.97-24.87 33.2-35.15 14.98-10.42 33.66-15.76 56.06-16.02 27.47.26 49.87 8.4 67.19 24.41 17.31 16.15 28.25 36.14 32.81 59.97h-45.7c-3.52-11.46-9.9-21.23-19.15-29.3-9.63-7.68-21.35-11.65-35.15-11.92-10.16.27-18.88 2.28-26.17 6.06-7.43 3.91-13.41 8.79-17.97 14.65-5.6 6.12-9.31 14-11.14 23.63-2.08 10.16-3.12 29.23-3.12 57.23 0 27.99 1.04 46.94 3.12 56.83 1.83 9.9 5.54 17.91 11.14 24.03 4.56 5.86 10.54 10.61 17.97 14.25 7.29 4.3 16.01 6.45 26.17 6.45 24.22 0 42.32-12.96 54.3-38.87Zm72.65 30.47v-235.55h40.82v232.43c0 9.24 5.08 13.86 15.24 13.86h14.06V1870h-18.17c-14.84 0-27.08-3.71-36.71-11.13-10.16-7.55-15.24-20.25-15.24-38.09Zm209.57 49.22v-17.97h-.78c-3.78 6.9-9.63 11.98-17.58 15.24-7.81 3.38-18.62 5.07-32.42 5.07-22.66-.26-40.1-6.25-52.34-17.96-12.89-11.46-19.34-26.11-19.34-43.95 0-17.06 5.6-31.19 16.8-42.38 11.2-11.46 27.6-17.32 49.22-17.58h56.44v-21.29c.26-17.84-13.6-26.5-41.6-25.98-10.16 0-18.16 1.04-24.02 3.13-6.12 2.47-10.94 6.64-14.46 12.5l-32.03-24.42c15.5-20.31 38.35-30.2 68.56-29.68 25.52-.26 45.9 4.55 61.13 14.45 15.23 10.16 22.98 27.6 23.24 52.34V1870h-40.82Zm0-71.29v-14.65h-48.83c-23.69.52-35.41 8.66-35.15 24.42 0 6.9 3.06 12.76 9.18 17.57 5.86 5.34 15.56 8.01 29.1 8.01 17.06.26 29.1-1.76 36.13-6.05 6.38-4.3 9.57-14.06 9.57-29.3Zm99.61 9.38c16.54 17.31 37.89 25.97 64.06 25.97 11.72 0 21.29-2.28 28.71-6.83 7.43-4.56 11.14-10.94 11.14-19.14 0-7.3-2.22-12.37-6.64-15.24-4.56-2.99-10.62-4.62-18.17-4.88l-35.93-3.13c-17.06-1.56-30.93-7.29-41.61-17.18-10.93-9.64-16.53-23.12-16.79-40.43.26-20.84 7.61-36.46 22.07-46.88 14.06-10.42 31.9-15.62 53.51-15.62 9.38 0 17.78.58 25.2 1.75 7.42 1.31 14.39 3.13 20.9 5.47 12.5 5.08 23.69 11.92 33.59 20.51l-25.19 29.49c-7.82-5.6-16.09-10.22-24.81-13.86-8.59-3.26-18.49-4.89-29.69-4.89-12.76 0-21.68 2.28-26.76 6.84-5.33 4.56-8 10.42-8 17.58-.26 4.55 1.76 8.53 6.05 11.91 3.91 3.78 10.81 6.19 20.71 7.23l33.59 2.54c21.09 1.56 36.33 7.94 45.7 19.14 8.73 10.94 13.09 24.8 13.09 41.6-.26 19.66-8.27 34.83-24.03 45.51-15.62 10.93-35.61 16.53-59.96 16.79-33.07 0-62.82-12.11-89.25-36.32l28.51-27.93Zm186.13 61.91v-284.77h40.82v103.52h.79c13.41-16.02 30.99-24.02 52.73-24.02 16.8 0 32.16 5.92 46.09 17.77 13.81 11.98 21.03 29.56 21.68 52.73V1870h-40.82v-120.7c0-14.2-3.77-25-11.33-32.42-7.42-7.56-16.99-11.33-28.71-11.33-11.71 0-21.35 3.77-28.9 11.33-7.68 7.42-11.53 18.22-11.53 32.42V1870h-40.82Z"/>
  <g clip-path="url(#a)">
    <path fill="#6FC067" d="M918.822 1029.41c-9.738-7.52-42.047-25.43-53.85-30.741l383.368-617.392c33.41-24.256 72.07 7.078 45.21 42.614L918.822 1029.41Z"/>
    <path fill="#fff" d="M280.448 1436.76c-5.607-20.72 29.506-79.26 17.999-93.56-7.967-9.88-33.343 11.72-38.433 6.48-8.188-8.33 21.835-88.17 27.736-101.67 40.646-92.3 79.816-143.1 99.733-248.825 3.909-20.865 15.49-81.985 15.195-99.679-.368-29.565-31.055-1.696-32.162-32.514-2.065-56.844 31.203-99.532 45.957-146.201 13.056-41.435-28.695-13.271-32.015-14.229-13.499-3.834 12.688-57.507 17.778-66.65 21.318-38.559 41.088-49.618 68.086-78.003 15.491-16.294-2.434-29.049-4.942-49.029-7.082-56.622 17.999-145.021 65.504-179.894 4.426-3.244 29.728-22.044 31.646-9.511 9.442 62.373-39.391 134.184-45.514 190.364-1.918 17.326 1.918 36.79 23.384 25.878 11.95-6.046 10.844-21.528 16.376-25.288 40.941-27.943 197.252 8.699 217.242 56.401 8.926 21.307-2.065 29.712-.664 44.236 1.697 18.432 38.285 34.21 51.932 45.49 20.433 16.884 85.864 82.427 88.003 106.978 2.803 32.514-37.031-16.957-42.932-18.727-23.679-7.225-29.433 17.474-15.565 33.473 20.581 23.74 68.382 12.312 34.671 52.567-18.737 22.413-40.129 27.722-65.284 11.28-7.524-4.939-30.244-35.241-39.907-16.515-9.664 18.727 21.908 42.246 21.761 44.827-.885 17.325-143.697-13.271-150.041-3.982-15.196 21.971 36.736 35.905 44.85 42.615 12.245 10.1 26.04 119.588 35.26 141.558 2.803 16.37 12.541 68.27 8.041 80.8-5.606 15.71-109.691 45.12-129.386 47.48-13.278 1.63-64.472-6.93-44.555 19.61 21.097 28.09 119.059 3.91 148.639-7.81 18.737-7.45 61.595-36.42 75.758-34.65 25.154 3.17 18.81 47.99 13.352 64.8-22.499 68.57-112.715 107.72-178.146 119.22-12.688 2.21-58.054-3.46-34.006 25.07 22.277 26.39 98.699.66 126.362-9.66 11.581-4.28 66.02-33.62 69.782-32.73 5.459 1.32 20.876 98.13 14.164 110.14-171.286 2.95-357.325-10.91-525.512 0l-.147-.14Zm448.13-763.007c-2.582-4.866-48.612-19.685-56.505-18.063-28.252 5.824-16.597 69.967 29.581 60.53 13.056-2.654 33.342-30.449 26.924-42.467Z"/>
    <path fill="#4D361C" d="M280.448 1436.76c-11.803.73-25.597 4.79-38.433 2.58v-37.16c0-1.03 3.32-3.61 2.361-7.23-.369-1.32-14.311-12.01-18.22-20.49-31.425-68.13 49.276-183.88 77.012-246.84 24.047-54.49 45.44-124.75 48.685-184.467 1.918-35.095-7.524-20.275-15.49-40.108-7.967-19.833-4.648-54.632-1.402-76.676 2.065-14.156 22.13-75.497 21.54-80.142-.369-2.875-10.918-10.101-13.868-18.505-17.409-50.725 34.596-132.415 67.275-169.794 4.426-5.087 17.777-13.419 18.884-17.179 2.139-7.225-4.426-23.371-4.795-32.661-3.615-83.533 16.376-159.988 84.684-212.777 108.731-84.122 105.633 38.855 86.97 115.162-1.991 8.037-19.917 53.305-17.777 55.222.59.516 14.163.516 16.597 0 13.721-3.244 85.79-104.398 102.609-122.977 18.884-20.791 53.849-64.806 82.176-35.979 28.326 28.828 8.999 113.835-8.631 147.897-4.057 7.889-28.031 38.412-25.966 41.73 1.033 1.622 28.253 12.017 34.08 15.925 22.573 15.04 41.162 39.665 42.932 67.534.517 8.7-5.68 18.874-1.475 26.836 2.508 4.645 57.759 45.416 67.939 55.075 57.39 54.41 93.241 111.328 44.038 187.562-24.195 37.527-101.797 75.054-145.319 75.054h-37.179l38.507 181.888c2.139 1.32 27.367-35.32 27.809-37.82 1.181-7.01-11.138-12.83-9.442-26.84.664-5.53 17.262-35.32 21.54-40.18 14.901-16.813 20.212-10.325 36.957-2.805 11.803 5.305 44.112 23.225 53.849 30.745 9.738 7.52 16.598 13.27 15.27 26.62-.885 9.14-25.376 49.83-34.449 50.2-4.426.15-12.393-7.52-16.523-4.86-1.181.73-14.754 22.78-14.754 24.18 0 1.99 15.713 21.09 18.516 26.84 18.589 37.82 7.155 74.68-15.713 107.49-6.122 8.77-40.571 42.03-41.087 44.97-1.033 6.64 12.245 50.14 14.015 61.94 1.549 10.1 9.442 67.82 1.18 70.26-6.565 1.84-29.875-.22-39.243-.08 6.712-12.01-8.705-108.82-14.163-110.14-3.763-.96-58.202 28.38-69.783 32.73-27.663 10.32-104.085 35.98-126.362 9.66-24.048-28.53 21.318-22.86 34.006-25.07 65.431-11.5 155.647-50.58 178.146-119.22 5.532-16.81 11.802-61.71-13.352-64.8-14.163-1.77-57.095 27.28-75.758 34.65-29.58 11.72-127.542 35.9-148.639 7.81-19.917-26.54 31.277-17.98 44.555-19.61 19.695-2.36 123.78-31.7 129.386-47.48 4.5-12.53-5.237-64.43-8.041-80.8-9.22-21.97-23.015-131.458-35.26-141.558-8.114-6.709-60.046-20.644-44.85-42.614 6.418-9.216 149.156 21.38 150.041 3.981.147-2.654-31.646-25.731-21.761-44.826 9.885-19.096 32.383 11.575 39.908 16.515 25.08 16.441 46.472 11.132 65.283-11.281 33.711-40.255-14.09-28.827-34.67-52.567-13.869-15.999-8.115-40.698 15.564-33.472 5.902 1.843 45.809 51.314 42.932 18.726-2.139-24.551-67.57-90.094-88.003-106.978-13.647-11.28-50.235-27.058-51.932-45.49-1.327-14.524 9.664-23.002.664-44.236-20.064-47.701-176.301-84.344-217.242-56.401-5.532 3.76-4.352 19.243-16.376 25.288-21.392 10.838-25.228-8.626-23.384-25.878 6.123-56.18 54.883-127.991 45.514-190.364-1.918-12.533-27.146 6.193-31.646 9.511-47.505 34.873-72.586 123.272-65.504 179.894 2.508 20.054 20.433 32.735 4.942 49.029-26.998 28.385-46.694 39.444-68.086 78.003-5.016 9.143-31.277 62.816-17.778 66.65 3.32.958 45.071-27.132 32.015 14.229-14.753 46.67-48.022 89.358-45.957 146.201 1.107 30.818 31.794 3.023 32.162 32.514.222 17.695-11.286 78.814-15.195 99.679-19.917 105.725-59.087 156.445-99.733 248.825-5.975 13.5-35.924 93.34-27.736 101.67 5.164 5.24 30.54-16.36 38.433-6.48 11.581 14.37-23.532 72.91-17.999 93.56ZM752.183 350.386l-8.851 2.654-91.102 117.742c33.416 4.203 40.277 16.663 64.029-11.575 9.811-11.649 35.924-58.244 35.924-71.663v-37.158Z"/>
    <path fill="#4D361C" d="M728.578 673.753c6.418 12.017-13.942 39.813-26.925 42.467-46.177 9.437-57.832-54.706-29.58-60.53 7.893-1.622 53.923 13.197 56.505 18.063Z"/>
    <path fill="#fff" d="M752.183 350.386v37.158c0 13.419-26.187 60.014-35.924 71.663-23.753 28.238-30.613 15.778-64.029 11.575l91.101-117.742 8.852-2.654Z"/>
  </g>
  <g clip-path="url(#b)">
    <path fill="#ED1368" d="M1296.73 995.849c-10.47 4.791-47.06 26.321-56.42 33.321-48.09-86.84-192.21-305.561-243.253-391-3.172-14.154 35.473-25.212 40.493-39.145l259.11 396.898.07-.074Z"/>
    <path fill="#ED1368" d="M873.145 376.398c12.243-2.138 25.593 1.4 34.002 10.91l139.913 225.651c1.33 5.529-30.09 52.266-33.56 52.266-21.016-33.247-44.914-64.651-66.451-97.529-16.816-25.58-88.508-131.144-94.335-151.564-4.942-17.398.811-36.343 20.431-39.734Z"/>
    <path fill="#fff" d="M1347.99 1436.46c.74-13.49 8.78-108.73 12.84-112.71 2.95-2.88 64.17 31.62 73.68 35.23 45.43 17.47 118.23 31.04 165.22 17.77 10.47-2.95 34.22-14.3 35.33-26.32 1.77-19.24-23.9-6.63-37.03-6.04-72.36 2.95-129.67-7.23-189.26-49.25-36.58-25.8-75.45-69.44-67.78-118.02 3.39-21.3 8.11-22.41 26.77-15.26 52.51 20.2 72.5 51.16 140.58 46.67 24.86-1.63 87.55-28.46 78.18-59.86-2.8-9.51-44.32 10.32-53.91 12.38-33.71 7.08-64.1 4.2-95.59-9.51-3.99-1.77-26.92-14.82-27.51-16.66-3.77-12.6 10.17-88.02 13.57-106.3 7.08-38.112 17.11-75.487 27.51-112.789 10.92-6.708 69.04-25.801 49.86-45.484-9.59-9.804-67.49 6.487-84.45 7.741-8.56.589-65.28.663-68.01-2.654-1.84-2.212 40.42-33.247 25.01-47.991-16.75-16.07-38.58 18.209-52.22 24.696-20.66 9.804-36.59 1.548-50.97-15.039-34.3-39.66 10.47-28.381 32.01-52.56 15.49-17.398 11.36-41.135-13.57-36.565-6.93 1.254-38.87 45.411-42.93 23.738-3.91-20.936 51.49-84.334 68.01-98.561 11.87-10.173 60.33-38.481 65.05-47.696 11.36-22.41-19.47-44.378 20.06-74.823 37.1-28.529 156.74-63.84 197.52-36.933 9.96 6.561 7.38 23.442 16.08 27.497 15.12 7.077 25.97-4.866 25.15-19.757-2.58-47.99-44.54-114.926-48.16-177.586-1.11-19.462-6.19-32.805 15.05-22.705 57.68 27.349 88.28 119.275 84.82 178.987-.96 16.291-12.69 45.41-9.52 58.311 2.95 11.868 18.81 15.333 27.66 23.663 20.51 19.241 53.03 71.58 60.19 98.708 11.21 42.462-5.46 15.702-19.92 18.43-24.63 4.57 8.26 48.211 13.87 61.923 6.79 16.587 37.32 112.346 22.2 121.708-9.44 5.898-29.8-7.077-27.58 21.821 3.68 47.327 26.7 139.7 42.18 185.92 20.66 61.85 54.66 116.99 79.88 176.4 5.76 13.64 29.65 74.16 23.53 84.78-3.69 6.41-31.86-8.7-35.55 9.44-3.39 16.51 16.15 55.36 10.25 75.41-169.56-5.46-358.46-5.38-528.02 0l-.08-.15Zm127.68-780.746c-7.31.369-35.41 8.773-41.16 12.827-22.05 15.407 10.92 48.433 28.18 50.055 37.76 3.612 50.96-64.725 12.98-62.882Z"/>
    <path fill="#4D361C" d="M1296.73 995.849c13.2-5.971 22.57-8.182 32.97 4.201 3.54 4.28 19.1 34.13 19.77 39.15 1.77 14.22-10.77 19.68-8.63 28.89 1.77 7.82 21.98 29.93 27.73 37.82 6.42-60.23 18-120.16 35.77-178.102-.96-6.119-25-3.244-31.56-4.202-64.1-8.773-130.55-32.067-158.43-95.244-36.22-81.974 15.63-133.577 73.6-183.558 7.45-6.413 48.32-33.541 49.64-36.342.74-1.401-5.16-24.18-4.72-31.257 1.7-29.413 27.59-54.846 51.34-69.368 7.08-4.35 32.08-12.827 33.11-14.302 2.07-2.948-33.92-48.285-38.87-59.711-14.16-32.51-34.96-156.504 29.36-134.388 41.82 14.375 109.82 129.743 144.12 163.359 2.8 3.759 20.95 3.317 21.76 2.58 2.73-2.58-19.25-61.481-21.39-72.096-12.69-62.513-16.67-167.782 75.97-109.25 59.08 37.301 96.47 108.734 101.71 177.586 1.4 18.651-7.08 69.885-4.57 78.805 1.47 5.086 20.06 19.977 25.08 26.317 28.39 35.753 69.77 100.92 63.94 148.247-1.55 12.827-13.05 24.401-12.76 33.468.45 13.195 16.16 52.045 19.47 70.548 4.14 22.853 9.3 57.353 2.66 79.542-5.68 18.798-17.92 10.468-16.37 39.291 3.46 64.137 29.65 144.557 55.61 203.167 26.99 61.04 99.2 166.6 72.43 232.88-4.21 10.39-19.4 17.47-20.51 19.38-1.32 2.36 2.36 5.02 2.36 5.97v39.74c-13.27 2.43-28.98-2.14-41.01-2.58 5.91-20.05-13.57-58.98-10.25-75.42 3.69-18.06 31.87-2.94 35.55-9.43 6.13-10.62-17.77-71.14-23.52-84.78-25.23-59.41-59.23-114.55-79.88-176.4-15.42-46.23-38.5-138.668-42.19-185.921-2.22-28.897 18.07-15.923 27.58-21.82 15.05-9.363-15.49-105.122-22.2-121.709-5.6-13.638-38.5-57.352-13.86-61.923 14.45-2.654 31.05 24.032 19.91-18.429-7.15-27.129-39.76-79.468-60.19-98.709-8.85-8.256-24.7-11.795-27.66-23.663-3.17-12.901 8.56-42.019 9.52-58.311 3.47-59.712-27.14-151.638-84.82-178.987-21.24-10.1-16.15 3.243-15.05 22.705 3.62 62.66 45.58 129.596 48.17 177.586.81 14.891-10.04 26.834-25.16 19.757-8.62-4.055-6.12-21.01-16.07-27.497-40.79-26.833-160.43 8.404-197.53 36.933-39.46 30.372-8.7 52.413-20.06 74.823-4.72 9.289-53.18 37.523-65.05 47.696-16.6 14.228-71.91 77.625-68.01 98.561 4.06 21.673 35.92-22.41 42.93-23.737 24.86-4.571 29.06 19.166 13.57 36.564-21.53 24.179-66.38 12.974-32.01 52.561 14.38 16.586 30.32 24.843 50.97 15.038 13.64-6.487 35.48-40.692 52.22-24.695 15.41 14.817-26.85 45.779-25.01 47.99 2.73 3.317 59.45 3.317 68.01 2.654 16.96-1.18 74.86-17.545 84.45-7.74 19.1 19.608-39.02 38.775-49.86 45.484-10.33 37.301-20.36 74.676-27.51 112.789-3.39 18.28-17.41 93.62-13.57 106.3.59 1.84 23.53 14.89 27.51 16.66 31.49 13.71 61.88 16.59 95.59 9.51 9.59-1.99 51.11-21.89 53.91-12.38 9.3 31.33-53.4 58.16-78.18 59.85-68 4.5-88.06-26.46-140.58-46.66-18.73-7.22-23.45-6.04-26.77 15.26-7.67 48.58 31.2 92.22 67.78 118.02 59.6 42.02 116.91 52.27 189.26 49.25 13.13-.52 38.8-13.2 37.03 6.04-1.11 12.02-24.86 23.37-35.33 26.32-46.99 13.27-119.78-.3-165.22-17.77-9.44-3.61-70.73-38.11-73.68-35.23-4.06 3.98-12.1 99.22-12.84 112.71-6.12.22-37.98 5.68-41 2.58-2-2.06 5.75-49.54 2.65-57.57 1.18-13.79 14.09-76.15 12.91-81.54-.59-2.58-30.02-27.42-37.1-37.89-21.24-31.55-30.09-67.6-14.83-103.94 2.66-6.26 20.8-30.22 20.58-32.36-.15-1.48-16.23-23.15-17.55-23.74-6.2-2.95-11.21 9.22-22.87 0-1.92-1.47-25.52-37.74-26.4-40.25-5.53-16.29 4.2-23.81 15.93-32.58 9.29-7 45.95-28.53 56.42-33.322l-.22.221Zm202.46-525.24-94.77-117.801c-7.97 27.054 32.97 123.404 60.33 125.394 2.14.147 33.26-6.266 34.44-7.593Z"/>
    <path fill="#4D361C" d="M1475.67 655.714c37.98-1.843 24.78 66.494-12.98 62.882-17.34-1.622-50.31-34.648-28.18-50.055 5.75-4.054 33.85-12.458 41.16-12.827Z"/>
    <path fill="#fff" d="M1499.2 470.609c-1.19 1.327-32.31 7.74-34.45 7.593-27.36-2.064-68.3-98.34-60.33-125.394l94.78 117.801Z"/>
  </g>
  <defs>
    <clipPath id="a">
      <path fill="#fff" d="M219 267h1083.55v1173H219z"/>
    </clipPath>
    <clipPath id="b">
      <path fill="#fff" d="M851.018 267h1089.98v1173H851.018z"/>
    </clipPath>
  </defs>
</svg>
